<svg fill="none" height="45" viewBox="0 0 241 45" width="241" xmlns="http://www.w3.org/2000/svg">
<path d="M31.398 0.209998C32.3127 0.209998 33.0477 0.503998 33.603 1.092C34.1583 1.64733 34.436 2.39867 34.436 3.346V32.354C34.436 33.2687 34.1747 33.9873 33.652 34.51C33.1293 35.0327 32.4433 35.294 31.594 35.294C30.7447 35.294 30.075 35.0327 29.585 34.51C29.095 33.9873 28.85 33.2687 28.85 32.354V12.166L20.52 27.944C20.128 28.6627 19.7033 29.2017 19.246 29.561C18.7887 29.8877 18.2497 30.051 17.629 30.051C17.0083 30.051 16.4693 29.8877 16.012 29.561C15.5547 29.2343 15.13 28.6953 14.738 27.944L6.359 12.411V32.354C6.359 33.236 6.09767 33.9547 5.575 34.51C5.085 35.0327 4.41533 35.294 3.566 35.294C2.71667 35.294 2.047 35.0327 1.557 34.51C1.067 33.9873 0.822 33.2687 0.822 32.354V3.346C0.822 2.39867 1.08333 1.64733 1.606 1.092C2.16133 0.503998 2.89633 0.209998 3.811 0.209998C5.085 0.209998 6.08133 0.912331 6.8 2.317L17.678 23.044L28.507 2.317C29.2257 0.912331 30.1893 0.209998 31.398 0.209998ZM58.0942 12.313C58.3555 11.725 58.6985 11.3003 59.1232 11.039C59.5805 10.745 60.0705 10.598 60.5932 10.598C61.3445 10.598 62.0142 10.8593 62.6022 11.382C63.2229 11.872 63.5332 12.4927 63.5332 13.244C63.5332 13.6033 63.4352 13.979 63.2392 14.371L49.8622 42.399C49.3069 43.5097 48.4412 44.065 47.2652 44.065C46.5139 44.065 45.8442 43.82 45.2562 43.33C44.7009 42.8727 44.4232 42.2847 44.4232 41.566C44.4232 41.2067 44.5212 40.7983 44.7172 40.341L48.0492 33.334L38.9352 14.371C38.7719 14.0443 38.6902 13.6687 38.6902 13.244C38.6902 12.4927 39.0005 11.8557 39.6212 11.333C40.2745 10.8103 41.0095 10.549 41.8262 10.549C42.3815 10.549 42.8879 10.696 43.3452 10.99C43.8025 11.2513 44.1619 11.676 44.4232 12.264L51.2832 27.405L58.0942 12.313Z" fill="#2356C8"/>
<path d="M83.1512 35.441C79.8192 35.441 76.8955 34.7223 74.3802 33.285C71.8975 31.8477 69.9865 29.7897 68.6472 27.111C67.3079 24.4323 66.6382 21.2963 66.6382 17.703C66.6382 14.1097 67.3079 10.99 68.6472 8.344C69.9865 5.66533 71.8975 3.60733 74.3802 2.17C76.8955 0.732665 79.8192 0.0139977 83.1512 0.0139977C85.3072 0.0139977 87.3325 0.340665 89.2272 0.994C91.1219 1.61467 92.8042 2.52933 94.2742 3.738C94.6989 4.06467 94.9929 4.40767 95.1562 4.767C95.3195 5.12633 95.4012 5.56733 95.4012 6.09C95.4012 6.80867 95.2052 7.413 94.8132 7.903C94.4212 8.393 93.9475 8.638 93.3922 8.638C92.7389 8.638 92.0692 8.40933 91.3832 7.952C89.9785 6.90666 88.6719 6.188 87.4632 5.796C86.2545 5.37133 84.9152 5.159 83.4452 5.159C80.0479 5.159 77.4672 6.22067 75.7032 8.344C73.9719 10.4673 73.1062 13.587 73.1062 17.703C73.1062 21.8517 73.9719 24.9877 75.7032 27.111C77.4672 29.2343 80.0479 30.296 83.4452 30.296C84.8499 30.296 86.1402 30.0837 87.3162 29.659C88.5249 29.2343 89.8805 28.5157 91.3832 27.503C91.7099 27.307 92.0365 27.1437 92.3632 27.013C92.6899 26.8823 93.0329 26.817 93.3922 26.817C93.9475 26.817 94.4212 27.062 94.8132 27.552C95.2052 28.042 95.4012 28.6463 95.4012 29.365C95.4012 29.855 95.3195 30.296 95.1562 30.688C94.9929 31.0473 94.6989 31.3903 94.2742 31.717C92.8042 32.9257 91.1219 33.8567 89.2272 34.51C87.3325 35.1307 85.3072 35.441 83.1512 35.441ZM110.835 35.392C108.385 35.392 106.229 34.8857 104.367 33.873C102.537 32.8603 101.116 31.4067 100.104 29.512C99.091 27.6173 98.5847 25.4123 98.5847 22.897C98.5847 20.3817 99.091 18.193 100.104 16.331C101.116 14.4363 102.537 12.9827 104.367 11.97C106.229 10.9573 108.385 10.451 110.835 10.451C113.285 10.451 115.424 10.9573 117.254 11.97C119.116 12.9827 120.537 14.4363 121.517 16.331C122.529 18.193 123.036 20.3817 123.036 22.897C123.036 25.4123 122.529 27.6173 121.517 29.512C120.537 31.4067 119.116 32.8603 117.254 33.873C115.424 34.8857 113.285 35.392 110.835 35.392ZM110.786 30.639C112.778 30.639 114.297 29.9857 115.343 28.679C116.388 27.3723 116.911 25.445 116.911 22.897C116.911 20.3817 116.388 18.4707 115.343 17.164C114.297 15.8247 112.795 15.155 110.835 15.155C108.875 15.155 107.356 15.8247 106.278 17.164C105.232 18.4707 104.71 20.3817 104.71 22.897C104.71 25.445 105.232 27.3723 106.278 28.679C107.323 29.9857 108.826 30.639 110.786 30.639ZM142.008 10.451C144.883 10.451 147.023 11.2677 148.427 12.901C149.832 14.5343 150.534 17.0007 150.534 20.3V32.354C150.534 33.2687 150.257 33.9873 149.701 34.51C149.179 35.0327 148.444 35.294 147.496 35.294C146.549 35.294 145.798 35.0327 145.242 34.51C144.687 33.9873 144.409 33.2687 144.409 32.354V20.643C144.409 18.781 144.05 17.4253 143.331 16.576C142.645 15.7267 141.551 15.302 140.048 15.302C138.284 15.302 136.863 15.8573 135.785 16.968C134.74 18.0787 134.217 19.565 134.217 21.427V32.354C134.217 33.2687 133.94 33.9873 133.384 34.51C132.829 35.0327 132.078 35.294 131.13 35.294C130.183 35.294 129.432 35.0327 128.876 34.51C128.354 33.9873 128.092 33.2687 128.092 32.354V13.391C128.092 12.5417 128.37 11.8557 128.925 11.333C129.481 10.8103 130.232 10.549 131.179 10.549C132.029 10.549 132.715 10.8103 133.237 11.333C133.793 11.823 134.07 12.4763 134.07 13.293V14.616C134.887 13.2767 135.981 12.2477 137.353 11.529C138.725 10.8103 140.277 10.451 142.008 10.451ZM169.201 30.737C170.835 30.835 171.651 31.57 171.651 32.942C171.651 33.726 171.325 34.3303 170.671 34.755C170.051 35.147 169.152 35.3103 167.976 35.245L166.653 35.147C161.165 34.755 158.421 31.815 158.421 26.327V15.645H155.971C155.089 15.645 154.403 15.449 153.913 15.057C153.456 14.665 153.227 14.0933 153.227 13.342C153.227 12.5907 153.456 12.019 153.913 11.627C154.403 11.235 155.089 11.039 155.971 11.039H158.421V6.531C158.421 5.649 158.699 4.94667 159.254 4.424C159.81 3.90133 160.561 3.64 161.508 3.64C162.423 3.64 163.158 3.90133 163.713 4.424C164.269 4.94667 164.546 5.649 164.546 6.531V11.039H168.711C169.593 11.039 170.263 11.235 170.72 11.627C171.21 12.019 171.455 12.5907 171.455 13.342C171.455 14.0933 171.21 14.665 170.72 15.057C170.263 15.449 169.593 15.645 168.711 15.645H164.546V26.768C164.546 29.1853 165.657 30.4757 167.878 30.639L169.201 30.737ZM185.231 10.451C188.563 10.451 191.03 11.284 192.63 12.95C194.264 14.5833 195.08 17.0823 195.08 20.447V32.403C195.08 33.285 194.819 33.9873 194.296 34.51C193.774 35 193.055 35.245 192.14 35.245C191.291 35.245 190.589 34.9837 190.033 34.461C189.511 33.9383 189.249 33.2523 189.249 32.403V31.325C188.694 32.599 187.812 33.5953 186.603 34.314C185.427 35.0327 184.055 35.392 182.487 35.392C180.887 35.392 179.433 35.0653 178.126 34.412C176.82 33.7587 175.791 32.8603 175.039 31.717C174.288 30.5737 173.912 29.2997 173.912 27.895C173.912 26.131 174.353 24.7427 175.235 23.73C176.15 22.7173 177.62 21.9823 179.645 21.525C181.671 21.0677 184.464 20.839 188.024 20.839H189.249V19.712C189.249 18.1113 188.906 16.9517 188.22 16.233C187.534 15.4817 186.424 15.106 184.888 15.106C183.941 15.106 182.977 15.253 181.997 15.547C181.017 15.8083 179.858 16.2003 178.518 16.723C177.669 17.1477 177.048 17.36 176.656 17.36C176.068 17.36 175.578 17.1477 175.186 16.723C174.827 16.2983 174.647 15.743 174.647 15.057C174.647 14.5017 174.778 14.028 175.039 13.636C175.333 13.2113 175.807 12.8193 176.46 12.46C177.604 11.8393 178.959 11.3493 180.527 10.99C182.128 10.6307 183.696 10.451 185.231 10.451ZM183.712 30.982C185.346 30.982 186.669 30.443 187.681 29.365C188.727 28.2543 189.249 26.8333 189.249 25.102V24.073H188.367C186.179 24.073 184.48 24.171 183.271 24.367C182.063 24.563 181.197 24.906 180.674 25.396C180.152 25.886 179.89 26.5557 179.89 27.405C179.89 28.4503 180.25 29.316 180.968 30.002C181.72 30.6553 182.634 30.982 183.712 30.982ZM211.938 35.392C209.553 35.392 207.446 34.8857 205.617 33.873C203.82 32.8603 202.432 31.423 201.452 29.561C200.472 27.699 199.982 25.5267 199.982 23.044C199.982 20.5613 200.488 18.3727 201.501 16.478C202.546 14.5507 204 13.0643 205.862 12.019C207.724 10.9737 209.864 10.451 212.281 10.451C213.555 10.451 214.829 10.6307 216.103 10.99C217.41 11.3493 218.553 11.8393 219.533 12.46C220.578 13.146 221.101 14.0117 221.101 15.057C221.101 15.7757 220.921 16.3637 220.562 16.821C220.235 17.2457 219.794 17.458 219.239 17.458C218.88 17.458 218.504 17.3763 218.112 17.213C217.72 17.0497 217.328 16.8537 216.936 16.625C216.217 16.2003 215.531 15.8737 214.878 15.645C214.225 15.3837 213.473 15.253 212.624 15.253C210.599 15.253 209.031 15.9227 207.92 17.262C206.842 18.5687 206.303 20.4633 206.303 22.946C206.303 25.396 206.842 27.2907 207.92 28.63C209.031 29.9367 210.599 30.59 212.624 30.59C213.441 30.59 214.159 30.4757 214.78 30.247C215.433 29.9857 216.152 29.6427 216.936 29.218C217.426 28.924 217.851 28.7117 218.21 28.581C218.569 28.4177 218.929 28.336 219.288 28.336C219.811 28.336 220.252 28.5647 220.611 29.022C220.97 29.4793 221.15 30.051 221.15 30.737C221.15 31.2923 221.019 31.7823 220.758 32.207C220.529 32.599 220.137 32.9583 219.582 33.285C218.569 33.9383 217.393 34.461 216.054 34.853C214.715 35.2123 213.343 35.392 211.938 35.392ZM237.82 30.737C239.454 30.835 240.27 31.57 240.27 32.942C240.27 33.726 239.944 34.3303 239.29 34.755C238.67 35.147 237.771 35.3103 236.595 35.245L235.272 35.147C229.784 34.755 227.04 31.815 227.04 26.327V15.645H224.59C223.708 15.645 223.022 15.449 222.532 15.057C222.075 14.665 221.846 14.0933 221.846 13.342C221.846 12.5907 222.075 12.019 222.532 11.627C223.022 11.235 223.708 11.039 224.59 11.039H227.04V6.531C227.04 5.649 227.318 4.94667 227.873 4.424C228.429 3.90133 229.18 3.64 230.127 3.64C231.042 3.64 231.777 3.90133 232.332 4.424C232.888 4.94667 233.165 5.649 233.165 6.531V11.039H237.33C238.212 11.039 238.882 11.235 239.339 11.627C239.829 12.019 240.074 12.5907 240.074 13.342C240.074 14.0933 239.829 14.665 239.339 15.057C238.882 15.449 238.212 15.645 237.33 15.645H233.165V26.768C233.165 29.1853 234.276 30.4757 236.497 30.639L237.82 30.737Z" fill="#E91E63"/>
</svg>
