<svg fill="none" height="112" viewBox="0 0 112 112" width="112" xmlns="http://www.w3.org/2000/svg">
<path d="M56 70.9334C64.2474 70.9334 70.9333 64.2475 70.9333 56C70.9333 47.7526 64.2474 41.0667 56 41.0667C47.7525 41.0667 41.0666 47.7526 41.0666 56C41.0666 64.2475 47.7525 70.9334 56 70.9334Z" fill="white"/>
<path d="M42 9.33334L33.46 18.6667H18.6667C13.5333 18.6667 9.33334 22.8667 9.33334 28V84C9.33334 89.1333 13.5333 93.3333 18.6667 93.3333H93.3333C98.4667 93.3333 102.667 89.1333 102.667 84V28C102.667 22.8667 98.4667 18.6667 93.3333 18.6667H78.54L70 9.33334H42ZM56 79.3333C43.12 79.3333 32.6667 68.88 32.6667 56C32.6667 43.12 43.12 32.6667 56 32.6667C68.88 32.6667 79.3333 43.12 79.3333 56C79.3333 68.88 68.88 79.3333 56 79.3333Z" fill="white"/>
</svg>
